<svg version="1" xmlns="http://www.w3.org/2000/svg" width="493.333" height="493.333" viewBox="0 0 370.000000 370.000000"><path d="M124.5 10.7c1.7 1.4 4.4 3.7 6 5.2 1.7 1.4 4.6 3.9 6.5 5.5 3.7 3 16.3 14 19 16.6.9.8 5.1 4.6 9.5 8.5 4.3 3.8 9.1 8.1 10.5 9.5 1.5 1.4 8.5 7.9 15.6 14.5S213.7 91.7 225 103c17.2 17.3 25.3 25.7 43 45 5.7 6.2 15.2 17.4 24.5 29 6 7.4 11.3 13.4 11.8 13.2.5-.1 2-1.6 3.5-3.3 1.4-1.7 3-3.6 3.6-4.3.6-.6 3.1-3.6 5.6-6.6 2.5-3 4.9-6 5.5-6.6 1-1 8.7-10.4 26.4-31.9l9-11-3.7-3.3c-16.8-14.8-52.5-38.9-80.4-54.3-9.7-5.3-38.7-19.8-46.8-23.3-3.6-1.6-8.7-3.9-11.5-5.1-18.5-8.4-63.9-24.4-84.5-29.9l-9.5-2.5 3 2.6zM116 11.9c0 .5-.6 1.6-1.3 2.3-.7.7-6 8.5-11.8 17.3C90.1 51 88.8 53 87.4 55.5c-.6 1.1-4.4 7.3-8.3 13.9-7.6 12.6-9.2 15.4-17.9 31.1-7.8 14.2-27.6 53.8-28.7 57.5-.1.3-.9 2.3-1.9 4.5-9.6 21.6-25.1 64.7-26.9 75-.2 1.1-.9 4-1.6 6.4-.7 2.3-1.1 4.5-.9 4.7.2.2 2.9-2.9 6-6.9 5.9-7.6 6.9-8.8 18.8-23.1 24.4-29.3 69-75 106.9-109.6 17.6-16 22.8-20.6 39.4-34.8l7.7-6.7-9.2-9c-10.8-10.5-22.4-21-39.3-35.4C119 12.4 116 10.2 116 11.9zM351.4 142.2c-8.5 11-39 48.4-43.5 53.3-1.4 1.6-7.5 8.6-13.5 15.5s-11.3 13-11.9 13.6c-.5.6-5.9 6.4-12 12.9-26.2 28.3-52.3 53.1-72.7 69.3-9.8 7.8-12.2 10.2-10 10.2.4 0 2.1 1.3 3.7 2.8 1.7 1.5 9.3 8.1 17 14.7 7.7 6.5 14.2 12.1 14.5 12.5.3.3 5.2 4.5 11 9.5 5.8 4.9 11.6 10 12.9 11.2l2.4 2.2 1.7-2.2c7.8-10.2 32.8-50.4 44.5-71.7 15.4-27.9 32.7-64.9 42-89.5 2-5.5 4-10.7 4.5-11.5 3.1-6.4 18.7-61.6 17.7-62.6-.2-.2-3.9 4.2-8.3 9.8z"/><path d="M44.5 206.2c-6.6 7.7-13.1 15.4-14.5 17.1-5.2 6.4-20.6 24.3-23.6 27.6-1.8 1.9-3 3.9-2.8 4.5.6 1.2 3.5 3.3 22.4 16.1 11.6 7.8 25 16.4 31.2 20 .9.5 4.3 2.5 7.5 4.4 5.9 3.5 7.1 4.1 22.3 12.6 19.1 10.6 58.5 28.9 78.5 36.4 3.3 1.3 6.9 2.7 8 3.2 7.6 3.4 52.1 17.7 59.7 19.3 1.3.3 3.9 1 5.8 1.5l3.5 1.1-3.5-3.3c-1.9-1.7-5.3-4.5-7.5-6.1-2.2-1.7-4.2-3.3-4.5-3.6-.3-.4-4.3-3.8-9-7.5-4.7-3.8-8.7-7.1-9-7.5-.3-.3-4.3-3.7-9-7.5s-9-7.4-9.6-8c-.6-.5-4.1-3.7-7.9-7-28.7-25-34.5-30.5-64-60-23.6-23.6-40.6-42.2-55.5-60.8-2.9-3.7-5.6-6.7-5.9-6.7-.3 0-6 6.4-12.6 14.2z"/></svg>